<?xml version="1.0" encoding="UTF-8" standalone="no"?>
<svg
   xmlns:dc="http://purl.org/dc/elements/1.1/"
   xmlns:cc="http://creativecommons.org/ns#"
   xmlns:rdf="http://www.w3.org/1999/02/22-rdf-syntax-ns#"
   xmlns:svg="http://www.w3.org/2000/svg"
   xmlns="http://www.w3.org/2000/svg"
   xmlns:sodipodi="http://sodipodi.sourceforge.net/DTD/sodipodi-0.dtd"
   xmlns:inkscape="http://www.inkscape.org/namespaces/inkscape"
   id="a15731c2-5ed4-409b-a7c9-bb3c5f711d85"
   data-name="Layer 1"
   width="772"
   height="812.26593"
   viewBox="0 0 772 812.26592"
   version="1.1"
   sodipodi:docname="click-get-started.svg"
   inkscape:version="0.92.3 (2405546, 2018-03-11)">
  <metadata
     id="metadata110">
    <rdf:RDF>
      <cc:Work
         rdf:about="">
        <dc:format>image/svg+xml</dc:format>
        <dc:type
           rdf:resource="http://purl.org/dc/dcmitype/StillImage" />
        <dc:title>click here</dc:title>
      </cc:Work>
    </rdf:RDF>
  </metadata>
  <sodipodi:namedview
     pagecolor="#ffffff"
     bordercolor="#666666"
     borderopacity="1"
     objecttolerance="10"
     gridtolerance="10"
     guidetolerance="10"
     inkscape:pageopacity="0"
     inkscape:pageshadow="2"
     inkscape:window-width="1920"
     inkscape:window-height="1052"
     id="namedview108"
     showgrid="true"
     inkscape:zoom="0.6"
     inkscape:cx="185.97082"
     inkscape:cy="561.80471"
     inkscape:window-x="0"
     inkscape:window-y="0"
     inkscape:window-maximized="1"
     inkscape:current-layer="a15731c2-5ed4-409b-a7c9-bb3c5f711d85">
    <inkscape:grid
       type="xygrid"
       id="grid906" />
  </sodipodi:namedview>
  <defs
     id="defs9">
    <linearGradient
       id="a026aeeb-1716-483c-ac60-35ab5f709f89"
       x1="818.69501"
       y1="798.03705"
       x2="818.69501"
       y2="789.28705"
       gradientTransform="translate(-700.54499,-19.86704)"
       gradientUnits="userSpaceOnUse">
      <stop
         offset="0"
         stop-color="gray"
         stop-opacity="0.25"
         id="stop2" />
      <stop
         offset="0.53514"
         stop-color="gray"
         stop-opacity="0.12"
         id="stop4" />
      <stop
         offset="1"
         stop-color="gray"
         stop-opacity="0.1"
         id="stop6" />
    </linearGradient>
  </defs>
  <title
     id="title11">click here</title>
  <ellipse
     cx="720.33337"
     cy="793.93256"
     rx="41.341766"
     ry="13.166667"
     id="ellipse4-3"
     style="fill:#e6f1fc;fill-opacity:1;stroke-width:0.43467116" />
  <ellipse
     cx="126.93671"
     cy="788.72162"
     rx="121.34177"
     ry="21.5"
     id="ellipse4"
     style="fill:#e6f1fc;fill-opacity:1;stroke-width:0.95159638" />
  <rect
     x="172.5"
     y="214.62024"
     width="186"
     height="151"
     id="rect23"
     style="fill:#0074d9" />
  <rect
     x="172.5"
     y="411.62024"
     width="515"
     height="16"
     id="rect25"
     style="fill:#e6f1fc;fill-opacity:1" />
  <rect
     x="432.5"
     y="224.12024"
     width="180"
     height="16"
     id="rect29"
     style="fill:#e6f1fc;fill-opacity:1" />
  <rect
     x="432.5"
     y="283.12024"
     width="255"
     height="16"
     id="rect31"
     style="opacity:1;fill:#e6f1fc;fill-opacity:1" />
  <rect
     x="172.5"
     y="461.62024"
     width="515"
     height="16"
     id="rect39"
     style="fill:#e6f1fc;fill-opacity:1" />
  <rect
     x="172.5"
     y="511.62024"
     width="515"
     height="16"
     id="rect43"
     style="fill:#e6f1fc;fill-opacity:1" />
  <rect
     x="172.5"
     y="561.62024"
     width="515"
     height="16"
     id="rect47"
     style="fill:#e6f1fc;fill-opacity:1" />
  <rect
     x="172.5"
     y="611.62024"
     width="515"
     height="16"
     id="rect51"
     style="fill:#e6f1fc;fill-opacity:1" />
  <rect
     x="172.5"
     y="661.62024"
     width="515"
     height="16"
     id="rect55"
     style="fill:#e6f1fc;fill-opacity:1" />
  <path
     d="m 116.4,778.11996 a 0.467,0.467 0 0 0 -0.1,0.05 c 1.19,-2.57 2.3,-5.17 3.31,-7.81 0.12,-0.31 0.23,-0.63 0.35,-0.94 -0.01,0.08 -0.01,0.16 -0.02,0.25 -0.03,0.5 -0.07,1 -0.11,1.51 -0.06,0.79 -0.11005,1.59 -0.12,2.39 -0.01,0.25 -0.01,0.49 -0.01,0.74 a 14.62975,14.62975 0 0 0 0.3,2.9 h -0.04 c -0.25,0.02 -0.48,0.03 -0.72,0.07 a 9.783,9.783 0 0 0 -2.73,0.78 0.59118,0.59118 0 0 0 -0.11,0.06 z"
     id="path61"
     style="fill:url(#a026aeeb-1716-483c-ac60-35ab5f709f89)"
     inkscape:connector-curvature="0" />
  <path
     d="m 135.3349,385.34079 c 0.107,4.17578 1.52192,8.22151 1.74374,12.38963 -12.2979,0.61182 -24.42747,-5.35354 -36.603,-3.52568 3.40328,-2.2026 5.22358,-6.17187 6.29422,-10.08 a 41.80174,41.80174 0 0 0 1.20077,-15.487 6.81912,6.81912 0 0 0 -0.15292,-0.85656 c -0.45129,-2.042 -1.62145,-4.93287 -1.30786,-6.539 0.413,-2.12609 2.41677,-1.70547 4.22167,-1.58312 a 158.14328,158.14328 0 0 1 16.41247,2.11848 c 1.41476,0.24474 15.1963,3.6863 15.40281,3.32683 a 64.85651,64.85651 0 0 0 -5.9654,12.29019 23.96064,23.96064 0 0 0 -1.2465,7.94623 z"
     id="path63"
     inkscape:connector-curvature="0"
     style="fill:#a0616a" />
  <path
     d="m 256.952,372.43877 a 17.97934,17.97934 0 0 1 -3.75515,3.78573 c -0.93312,0.76479 -1.88911,1.54484 -2.89093,2.24849 a 12.39718,12.39718 0 0 1 -6.14886,2.50083 c -2.92921,0.19885 -9.147,-1.52193 -10.96717,-4.03042 a 7.27035,7.27035 0 0 1 -1.04776,-4.19869 19.315,19.315 0 0 1 1.00948,-5.87364 32.736,32.736 0 0 1 4.74176,-8.58093 c 2.1184,-2.94443 4.474,-5.843 7.625,-7.625 a 29.578,29.578 0 0 1 3.2427,-1.49131 c 1.912,-0.7801 3.8164,-1.56786 5.72837,-2.34791 a 2.76435,2.76435 0 0 1 1.04,-0.27531 c 1.53723,0.0153 1.82029,2.36317 0.94833,3.63275 -1.74375,2.55438 -5.667,3.26563 -6.76829,6.16422 a 4.39408,4.39408 0 0 1 4.08386,3.1662 2.23769,2.23769 0 0 0 0.55073,1.27723 c 0.50478,0.40532 1.29254,0.17589 1.86613,0.48182 1.017,0.543 0.5736,2.05729 0.68059,3.20448 a 14.99277,14.99277 0 0 0 1.04776,2.88323 6.12631,6.12631 0 0 1 -0.98655,5.07823 z"
     id="path65"
     inkscape:connector-curvature="0"
     style="fill:#a0616a" />
  <path
     d="m 87.43242,791.1095 c 0.94675,-0.94594 2.49321,-0.78518 3.81512,-0.57613 a 141.54223,141.54223 0 0 0 21.45078,1.73514 c 0.89941,-4.39192 -1.71148,-8.66065 -2.55261,-13.0641 a 11.78627,11.78627 0 0 0 -0.84963,-3.30321 c -1.01161,-1.941 -3.29368,-2.82882 -5.43538,-3.28058 -3.86565,-0.81539 -9.90838,-2.2541 -12.06738,1.65424 -2.59051,4.6895 -3.41932,11.61573 -4.3609,16.83464 z"
     id="path67"
     inkscape:connector-curvature="0"
     style="fill:#65617d" />
  <path
     d="m 166.02587,774.51996 c -2.91381,1.98849 -6.53125,2.608 -10.034,3.05917 -3.51046,0.44359 -7.11259,0.78776 -10.2865,2.34791 -2.73791,1.3537 -5.0476,3.57156 -7.94619,4.54286 a 16.55529,16.55529 0 0 1 -8.25212,0.13 c -3.258,-0.61182 -6.73011,-1.79724 -8.48907,-4.61166 -1.56786,-2.50088 -1.39963,-5.67478 -1.18546,-8.61921 q 0.37851,-4.99023 0.74182,-9.99582 a 4.76,4.76 0 0 1 0.61953,-2.41672 c 2.35552,-3.43391 8.0838,1.43781 11.15062,1.43015 4.8564,-0.008 10.07233,-2.63854 13.575,-5.85832 a 4.11986,4.11986 0 0 1 1.0555,-0.79536 c 1.38432,-0.61948 2.76854,0.52771 3.99985,1.52958 0.13761,0.11474 0.27531,0.22943 0.413,0.33651 2.83735,2.24849 6.646,2.70735 10.14879,3.61745 3.51037,0.9101 7.26552,2.74562 8.35146,6.20249 a 5.27463,5.27463 0 0 1 0.16823,0.66536 c 0.63484,3.18153 -1.3001,6.56955 -4.03046,8.43561 z"
     id="path69"
     inkscape:connector-curvature="0"
     style="fill:#3f3d56" />
  <path
     d="m 166.02587,774.51996 c -2.91381,1.98849 -6.53125,2.608 -10.034,3.05917 -3.51046,0.44359 -7.11259,0.78776 -10.2865,2.34791 -2.73791,1.3537 -5.0476,3.57156 -7.94619,4.54286 a 16.55529,16.55529 0 0 1 -8.25212,0.13 c -3.258,-0.61182 -6.73011,-1.79724 -8.48907,-4.61166 -1.56786,-2.50088 -1.39963,-5.67478 -1.18546,-8.61921 q 0.37851,-4.99023 0.74182,-9.99582 a 4.76,4.76 0 0 1 0.61953,-2.41672 c 2.35552,-3.43391 8.0838,1.43781 11.15062,1.43015 4.8564,-0.008 10.07233,-2.63854 13.575,-5.85832 a 4.11986,4.11986 0 0 1 1.0555,-0.79536 c 1.38432,-0.61948 2.76854,0.52771 3.99985,1.52958 0.13761,0.11474 0.27531,0.22943 0.413,0.33651 2.83735,2.24849 6.646,2.70735 10.14879,3.61745 3.51037,0.9101 7.26552,2.74562 8.35146,6.20249 a 5.27463,5.27463 0 0 1 0.16823,0.66536 c 0.63484,3.18153 -1.3001,6.56955 -4.03046,8.43561 z"
     id="path71"
     inkscape:connector-curvature="0"
     style="fill:#2f2e41" />
  <path
     d="m 166.02587,775.63932 c -2.91381,1.98848 -6.53125,2.608 -10.034,3.05916 -3.51046,0.44359 -7.11259,0.78776 -10.2865,2.34791 -2.73791,1.3537 -5.0476,3.57156 -7.94619,4.54286 a 16.55541,16.55541 0 0 1 -8.25212,0.13 13.62478,13.62478 0 0 1 -8.48907,-5.731 c -1.56786,-2.50088 -1.39963,-5.67478 -1.18546,-8.61921 q 0.37851,-4.99023 0.74182,-9.99582 a 4.76,4.76 0 0 1 0.61953,-2.41672 c 2.35552,-3.43391 8.0838,1.43781 11.15062,1.43015 4.8564,-0.008 10.07233,-2.63854 13.575,-5.85832 a 4.11986,4.11986 0 0 1 1.0555,-0.79537 c 1.38432,-0.61948 2.76854,0.52771 3.99985,1.52958 a 28.73076,28.73076 0 0 1 -3.41094,7.05135 14.67489,14.67489 0 0 1 -10.69942,6.69192 c -2.17208,0.16063 -4.39755,-0.26765 -6.50073,0.29063 -2.09552,0.55833 -4.05342,2.70739 -3.3116,4.74937 0.72651,1.98844 3.29629,2.42437 5.41478,2.53911 2.9673,0.16062 6.01125,0.30593 8.82572,-0.61948 1.72078,-0.57359 3.2962,-1.52193 4.97114,-2.21791 7.12016,-2.95208 16.11411,-1.30016 21.9954,-6.28656 a 13.015,13.015 0 0 1 1.79714,-1.37662 c 1.53978,3.22346 -1.30011,7.68887 -4.03047,9.55497 z"
     id="path73"
     inkscape:connector-curvature="0"
     style="fill:#e8eaf2" />
  <path
     d="m 166.02587,775.63932 c -2.91381,1.98848 -6.53125,2.608 -10.034,3.05916 -3.51046,0.44359 -7.11259,0.78776 -10.2865,2.34791 -2.73791,1.3537 -5.0476,3.57156 -7.94619,4.54286 a 16.55541,16.55541 0 0 1 -8.25212,0.13 13.62478,13.62478 0 0 1 -8.48907,-5.731 c -1.56786,-2.50088 -1.39963,-5.67478 -1.18546,-8.61921 q 0.37851,-4.99023 0.74182,-9.99582 a 4.76,4.76 0 0 1 0.61953,-2.41672 c 2.35552,-3.43391 8.0838,1.43781 11.15062,1.43015 4.8564,-0.008 10.07233,-2.63854 13.575,-5.85832 a 4.11986,4.11986 0 0 1 1.0555,-0.79537 c 1.38432,-0.61948 2.76854,0.52771 3.99985,1.52958 a 28.73076,28.73076 0 0 1 -3.41094,7.05135 14.67489,14.67489 0 0 1 -10.69942,6.69192 c -2.17208,0.16063 -4.39755,-0.26765 -6.50073,0.29063 -2.09552,0.55833 -4.05342,2.70739 -3.3116,4.74937 0.72651,1.98844 3.29629,2.42437 5.41478,2.53911 2.9673,0.16062 6.01125,0.30593 8.82572,-0.61948 1.72078,-0.57359 3.2962,-1.52193 4.97114,-2.21791 7.12016,-2.95208 16.11411,-1.30016 21.9954,-6.28656 a 13.015,13.015 0 0 1 1.79714,-1.37662 c 1.53978,3.22346 -1.30011,7.68887 -4.03047,9.55497 z"
     id="path75"
     inkscape:connector-curvature="0"
     style="opacity:0.05" />
  <path
     d="m 88.764,557.75504 a 43.783,43.783 0 0 0 6.00086,32.30554 c 1.66828,2.58492 3.62326,5.01155 4.87743,7.82083 a 35.54763,35.54763 0 0 1 1.90347,6.19771 l 5.40525,22.37335 c 1.45922,6.04 2.92905,12.19684 2.49077,18.39513 -0.30539,4.31886 -1.394,9.175 1.26772,12.58979 a 9.27854,9.27854 0 0 1 1.6081,2.2064 5.58447,5.58447 0 0 1 0.0265,2.90737 c -2.73469,16.24376 -4.76269,33.22569 0.17695,48.94 4.47709,14.24277 4.73264,30.02445 8.53949,44.46082 0.47139,1.78763 1.01049,3.672 2.36461,4.93067 a 7.75079,7.75079 0 0 0 3.54539,1.68476 c 5.60984,1.33477 11.53392,-0.229 16.766,-2.65342 3.67711,-1.70388 7.635,-4.69183 7.32087,-8.73233 -0.14944,-1.92205 -1.27217,-3.60662 -2.03419,-5.37748 -1.49456,-3.47323 -1.61464,-7.35311 -2.01791,-11.11268 -1.01263,-9.44028 -3.92293,-18.55549 -6.12256,-27.7916 -2.19963,-9.23611 -3.6939,-18.8873 -1.83357,-28.19769 a 246.66239,246.66239 0 0 1 18.14088,-55.80776 6.72983,6.72983 0 0 1 1.66159,-2.49909 17.18127,17.18127 0 0 0 2.35187,-1.6054 7.09664,7.09664 0 0 0 1.07592,-2.92564 c 0.81816,-2.9468 3.2485,-5.12091 4.87771,-7.70909 4.11376,-6.53514 2.81012,-14.912 2.65772,-22.6326 -0.14819,-7.508 0.93294,-15.0847 -0.29788,-22.49257 -1.23082,-7.40787 -5.47462,-14.98013 -12.6163,-17.30129 -3.53765,-1.14979 -7.36223,-0.889 -11.064,-0.5226 -19.61142,1.9411 -38.66779,5.50352 -57.0727,12.54887 z"
     id="path77"
     inkscape:connector-curvature="0"
     style="fill:#2f2e41" />
  <path
     d="m 88.764,557.75504 a 43.783,43.783 0 0 0 6.00086,32.30554 c 1.66828,2.58492 3.62326,5.01155 4.87743,7.82083 a 35.54763,35.54763 0 0 1 1.90347,6.19771 l 5.40525,22.37335 c 1.45922,6.04 2.92905,12.19684 2.49077,18.39513 -0.30539,4.31886 -1.394,9.175 1.26772,12.58979 a 9.27854,9.27854 0 0 1 1.6081,2.2064 5.58447,5.58447 0 0 1 0.0265,2.90737 c -2.73469,16.24376 -4.76269,33.22569 0.17695,48.94 4.47709,14.24277 4.73264,30.02445 8.53949,44.46082 0.47139,1.78763 1.01049,3.672 2.36461,4.93067 a 7.75079,7.75079 0 0 0 3.54539,1.68476 c 5.60984,1.33477 11.53392,-0.229 16.766,-2.65342 3.67711,-1.70388 7.635,-4.69183 7.32087,-8.73233 -0.14944,-1.92205 -1.27217,-3.60662 -2.03419,-5.37748 -1.49456,-3.47323 -1.61464,-7.35311 -2.01791,-11.11268 -1.01263,-9.44028 -3.92293,-18.55549 -6.12256,-27.7916 -2.19963,-9.23611 -3.6939,-18.8873 -1.83357,-28.19769 a 246.66239,246.66239 0 0 1 18.14088,-55.80776 6.72983,6.72983 0 0 1 1.66159,-2.49909 17.18127,17.18127 0 0 0 2.35187,-1.6054 7.09664,7.09664 0 0 0 1.07592,-2.92564 c 0.81816,-2.9468 3.2485,-5.12091 4.87771,-7.70909 4.11376,-6.53514 2.81012,-14.912 2.65772,-22.6326 -0.14819,-7.508 0.93294,-15.0847 -0.29788,-22.49257 -1.23082,-7.40787 -5.47462,-14.98013 -12.6163,-17.30129 -3.53765,-1.14979 -7.36223,-0.889 -11.064,-0.5226 -19.61142,1.9411 -38.66779,5.50352 -57.0727,12.54887 z"
     id="path79"
     inkscape:connector-curvature="0"
     style="opacity:0.1" />
  <path
     d="m 168.64158,604.84347 a 46.89143,46.89143 0 0 1 -0.98661,8.68036 q -5.1853,29.08122 -11.05128,58.04 c -0.34412,1.6749 -0.68068,3.34979 -1.13188,4.99411 a 40.50013,40.50013 0 0 1 -7.48724,14.72984 c -16.29774,20.31284 -17.705,49.81084 -26.546,74.30712 -0.59647,1.65958 -1.193,3.31916 -1.82786,4.95583 a 123.7726,123.7726 0 0 1 -5.453,12.16785 3.47771,3.47771 0 0 1 -1.12422,1.45307 3.33384,3.33384 0 0 1 -1.77427,0.34417 51.7929,51.7929 0 0 1 -22.9667,-5.22354 4.75579,4.75579 0 0 1 -2.43964,-2.02667 4.90137,4.90137 0 0 1 -0.26009,-2.33265 c 0.24478,-4.8564 0.543,-9.88874 2.86031,-14.15624 a 30.2069,30.2069 0 0 1 5.65947,-6.8602 c 0.68833,-15.24228 2.195,-30.51513 5.54474,-45.398 1.72078,-7.60968 3.84682,-15.30348 8.26734,-21.73535 3.258,-4.74937 7.931,-9.43754 7.35738,-15.16582 -0.25244,-2.51614 -1.30786,-5.65181 0.74182,-7.12786 0.89475,-0.65 2.21782,-0.73421 2.822,-1.65958 a 3.14867,3.14867 0 0 0 0.3977,-1.4225 35.12321,35.12321 0 0 0 -0.72651,-11.75488 61.99751,61.99751 0 0 1 -1.7514,-7.66317 c -0.2601,-2.61562 0.18354,-5.44531 1.92729,-7.40318 0.107,-5.23119 -0.0383,-10.66118 0.0688,-15.88472 a 29.45678,29.45678 0 0 0 -0.73426,-8.87156 c -0.39761,-1.369 -1.00183,-2.67677 -1.30776,-4.07635 -1.0936,-5.02468 1.63675,-11.04358 -1.61361,-15.02816 -1.35369,-1.65193 -3.44156,-2.47791 -5.21593,-3.671 -3.541,-2.36322 -5.866,-6.23306 -7.15852,-10.2941 a 56.81621,56.81621 0 0 1 -2.02662,-12.60374 12.97228,12.97228 0 0 1 -0.0306,-2.72265 4.99033,4.99033 0 0 1 0.36708,-1.36131 c 1.00958,-2.27145 3.72462,-3.151 6.14129,-3.73218 a 198.87436,198.87436 0 0 1 46.897,-5.48359 c 5.84292,-3.97687 9.13156,-2.55437 11.60948,1.65963 a 43.54647,43.54647 0 0 1 3.30395,8.06854 c 1.13187,3.41859 1.20068,22.55368 2.302,25.98758 1.43024,4.46639 -2.70721,13.58273 -2.65363,18.2709 z"
     id="path81"
     inkscape:connector-curvature="0"
     style="fill:#2f2e41" />
  <path
     d="m 62.99765,430.71444 c -0.43418,3.01081 1.01349,5.96967 1.17356,9.0074 0.13985,2.65412 -0.705,5.24647 -1.18834,7.85995 -1.88648,10.19972 1.73794,20.53142 5.4265,30.22615 a 15.5756,15.5756 0 0 1 1.28824,4.97107 c 0.09868,3.1643 -1.72382,6.06351 -2.22293,9.18977 -1.0488,6.56915 3.79679,12.74856 3.89721,19.40015 0.04624,3.06249 -0.91819,6.17948 -0.152,9.14494 0.51132,1.97905 1.74667,3.67978 2.62326,5.52631 1.55325,3.27189 1.9701,6.98414 3.4527,10.28864 2.67939,5.972 8.4356,9.87141 13.91368,13.45391 3.11657,-1.039 6.486,-2.2726 8.19693,-5.07715 a 12.5793,12.5793 0 0 0 1.43079,-4.45235 c 1.18447,-6.80315 1.14342,-13.7525 1.09891,-20.65786 a 127.38472,127.38472 0 0 0 -0.94514,-17.78193 c -1.1066,-7.50268 -3.54081,-14.73668 -5.28718,-22.11672 -2.20256,-9.30784 -3.33121,-18.92471 -6.76167,-27.85327 -3.01458,-7.84613 -7.71016,-14.889 -12.65255,-21.63488 -1.88582,-2.57394 -3.37454,-6.25318 -7.03463,-5.65883 a 7.67411,7.67411 0 0 0 -6.25734,6.1647 z"
     id="path83"
     inkscape:connector-curvature="0"
     style="fill:#3f3d56" />
  <path
     d="m 62.99765,430.71444 c -0.43418,3.01081 1.01349,5.96967 1.17356,9.0074 0.13985,2.65412 -0.705,5.24647 -1.18834,7.85995 -1.88648,10.19972 1.73794,20.53142 5.4265,30.22615 a 15.5756,15.5756 0 0 1 1.28824,4.97107 c 0.09868,3.1643 -1.72382,6.06351 -2.22293,9.18977 -1.0488,6.56915 3.79679,12.74856 3.89721,19.40015 0.04624,3.06249 -0.91819,6.17948 -0.152,9.14494 0.51132,1.97905 1.74667,3.67978 2.62326,5.52631 1.55325,3.27189 1.9701,6.98414 3.4527,10.28864 2.67939,5.972 8.4356,9.87141 13.91368,13.45391 3.11657,-1.039 6.486,-2.2726 8.19693,-5.07715 a 12.5793,12.5793 0 0 0 1.43079,-4.45235 c 1.18447,-6.80315 1.14342,-13.7525 1.09891,-20.65786 a 127.38472,127.38472 0 0 0 -0.94514,-17.78193 c -1.1066,-7.50268 -3.54081,-14.73668 -5.28718,-22.11672 -2.20256,-9.30784 -3.33121,-18.92471 -6.76167,-27.85327 -3.01458,-7.84613 -7.71016,-14.889 -12.65255,-21.63488 -1.88582,-2.57394 -3.37454,-6.25318 -7.03463,-5.65883 a 7.67411,7.67411 0 0 0 -6.25734,6.1647 z"
     id="path85"
     inkscape:connector-curvature="0"
     style="opacity:0.05" />
  <circle
     cx="129.80823"
     cy="349.04486"
     r="28.399639"
     id="circle87"
     style="fill:#a0616a" />
  <path
     d="m 146.33543,395.53527 c -1.23808,1.43264 -2.89946,3.01139 -4.73575,2.54949 a 6.46986,6.46986 0 0 1 -1.84292,-0.98643 c -3.2738,-2.11 -7.29215,-2.60512 -11.14357,-3.18533 a 164.42788,164.42788 0 0 1 -22.94933,-5.15949 23.40862,23.40862 0 0 0 -6.78793,-1.38017 c -4.81342,0.0249 -9.0793,3.22453 -12.09574,6.97564 -3.01644,3.75111 -5.15349,8.14043 -8.11345,11.93627 -2.10893,2.70449 -4.62037,5.08762 -6.58985,7.8953 -4.97214,7.08821 -6.0408,16.33583 -4.75717,24.89837 1.28363,8.56254 4.70457,16.63623 8.09463,24.60318 a 85.49278,85.49278 0 0 0 6.60913,13.32566 c -1.14362,6.50577 -0.54,13.9458 2.55353,19.78214 1.0075,1.90077 2.24216,3.75431 2.57526,5.87963 a 14.71694,14.71694 0 0 1 -0.17845,4.312 l -1.44542,10.28183 c -0.44013,3.13081 -0.88044,6.26271 -1.45045,9.3725 -1.04324,5.69154 -2.45858,11.86861 0.17731,17.01974 3.15661,6.16873 -0.1588,14.07425 0.6706,20.95389 a 105.40668,105.40668 0 0 1 27.67394,-6.57491 c 6.10285,-0.59825 12.31961,-0.67384 18.20755,-2.387 3.67722,-1.06989 7.16442,-2.76367 10.89791,-3.61669 a 50.24283,50.24283 0 0 1 9.18924,-0.93811 c 6.80521,-0.27451 13.65853,-0.54666 20.395,0.45648 0.5455,0.0812 1.20995,0.12507 1.53644,-0.31941 a 1.43731,1.43731 0 0 0 0.20465,-0.80294 13.58022,13.58022 0 0 0 -1.74144,-7.2299 c -0.85878,-1.51567 -2.052,-2.99828 -2.01894,-4.74 a 7.20158,7.20158 0 0 1 0.58993,-2.35357 l 2.98486,-7.96034 c 2.51976,-6.72 1.32064,-14.52564 2.62927,-21.58218 a 126.71284,126.71284 0 0 0 1.96173,-16.69576 c 0.24229,-4.78861 0.0917,-9.9743 -2.79771,-13.80061 a 15.86364,15.86364 0 0 1 -2.18321,-3.036 9.2162,9.2162 0 0 1 -0.51989,-3.63069 q -0.0966,-14.37362 0.78861,-28.73145 c -2.51969,-4.52539 -5.14673,-9.15351 -7.66642,-13.67891 -2.93241,-5.26665 -5.90567,-10.6417 -7.08963,-16.55228 -0.78369,-3.9123 -0.75648,-7.94112 -1.31709,-11.89156 a 5.19286,5.19286 0 0 0 -1.00419,-2.777 c -0.96225,-1.09 -2.58937,-1.246 -4.04264,-1.20061 a 17.894,17.894 0 0 0 -5.2684,0.96922 z"
     id="path89"
     inkscape:connector-curvature="0"
     style="fill:#3f3d56" />
  <path
     d="m 155.82077,439.89241 c 1.7286,2.1551 3.53021,4.37128 5.98227,5.644 2.8212,1.46435 6.14437,1.49774 9.32224,1.43013 a 222.75524,222.75524 0 0 0 38.95562,-4.2793 24.32815,24.32815 0 0 0 4.29039,-1.14992 22.595,22.595 0 0 0 4.33615,-2.70453 c 4.2252,-3.03757 8.51045,-6.13193 11.72316,-10.22554 a 34.37929,34.37929 0 0 0 6.9494,-17.04329 c 3.056,-2.81565 4.6788,-6.81776 6.2086,-10.68129 a 16.3109,16.3109 0 0 0 1.41531,-5.18766 c 0.0821,-1.837 -1.13515,-3.76275 -0.79845,-5.5705 a 14.72216,14.72216 0 0 1 4.50638,-8.10647 2.95594,2.95594 0 0 0 1.0718,-1.42437 2.2957,2.2957 0 0 0 -0.25518,-1.38826 c -1.30776,-2.91286 -4.298,-4.791 -7.39835,-5.55437 a 31.75246,31.75246 0 0 0 -9.53247,-0.37846 22.28,22.28 0 0 0 -3.12224,0.82926 l -2.22085,5.84811 a 7.564,7.564 0 0 1 -1.45109,2.66767 13.6187,13.6187 0 0 1 -1.57673,1.23287 9.01873,9.01873 0 0 0 -3.12508,7.88166 8.46937,8.46937 0 0 0 -5.00822,10.45532 9.981,9.981 0 0 0 -7.32285,6.44684 4.82035,4.82035 0 0 1 -0.95643,2.00649 3.89445,3.89445 0 0 1 -2.557,0.78579 c -2.50956,0.15522 -4.70395,2.13169 -6.97825,1.05952 a 14.18719,14.18719 0 0 0 -8.28847,-1.15845 6.23923,6.23923 0 0 1 -1.76863,0.15686 4.67029,4.67029 0 0 1 -1.45051,-0.50545 11.60807,11.60807 0 0 0 -3.28988,-1.29433 3.08,3.08 0 0 0 -3.12113,1.20561 c -0.79639,-0.87332 -1.271,-1.99173 -1.99663,-2.92466 a 3.20148,3.20148 0 0 0 -3.02778,-1.44485 c 0.756,-0.6736 -0.0178,-2.01422 -1.00035,-2.25922 a 12.81752,12.81752 0 0 0 -3.02074,0.10949 c -2.6266,-0.0138 -4.64193,-2.39876 -7.1933,-3.023 -2.34512,-0.57379 -5.47078,0.11046 -6.6729,-1.98327 -0.4262,-0.74229 -0.50963,-1.749 -1.235,-2.20347 a 2.38326,2.38326 0 0 0 -1.58445,-0.18362 15.48847,15.48847 0 0 0 -4.79167,1.45429 c -2.45919,9.61913 -1.169,19.60875 0.70481,29.35884 a 25.90086,25.90086 0 0 0 5.2785,12.10153 z"
     id="path91"
     inkscape:connector-curvature="0"
     style="fill:#3f3d56" />
  <path
     d="m 141.54087,388.40796 c -3.04677,-1.89657 -6.63352,-2.70086 -10.164,-3.34561 a 21.41285,21.41285 0 0 0 -6.4671,-0.4651 c -1.99921,0.24948 -3.9181,1.02136 -5.9297,1.13346 -2.82345,0.15734 -5.53041,-0.98791 -8.25794,-1.73441 -2.72753,-0.7465 -5.87817,-1.03169 -8.1745,0.61862 a 3.5305,3.5305 0 0 1 -1.77929,0.945 3.11283,3.11283 0 0 1 -1.83914,-0.902 10.4779,10.4779 0 0 0 -13.05855,0.68824 c -5.207,4.88241 -4.61771,14.42217 -10.72,18.12529 -1.68206,1.02074 -3.83241,1.5607 -4.81443,3.26566 a 12.06272,12.06272 0 0 1 -0.83023,1.57027 4.25319,4.25319 0 0 1 -1.4671,1.04539 28.50878,28.50878 0 0 0 -5.02994,2.8915 7.19368,7.19368 0 0 0 -2.895,4.85284 9.143,9.143 0 0 0 0.889,4.08126 38.29418,38.29418 0 0 0 37.21425,23.79652 5.89059,5.89059 0 0 0 3.89831,-1.21668 7.357,7.357 0 0 0 1.36643,-2.25052 c 2.86872,-6.01515 8.25682,-10.45557 11.67819,-16.17447 2.0391,-3.4084 3.348,-7.22054 5.4707,-10.57753 3.21782,-5.089 8.11145,-8.84842 12.90133,-12.49657 2.70108,-2.05725 5.70817,-4.21618 9.10153,-4.07208 3.02424,0.1288 5.224,0.29114 4.11527,-3.418 a 11.883,11.883 0 0 0 -5.20809,-6.36108 z"
     id="path93"
     inkscape:connector-curvature="0"
     style="fill:#3f3d56" />
  <path
     d="m 141.54087,388.40796 c -3.04677,-1.89657 -6.63352,-2.70086 -10.164,-3.34561 a 21.41285,21.41285 0 0 0 -6.4671,-0.4651 c -1.99921,0.24948 -3.9181,1.02136 -5.9297,1.13346 -2.82345,0.15734 -5.53041,-0.98791 -8.25794,-1.73441 -2.72753,-0.7465 -5.87817,-1.03169 -8.1745,0.61862 a 3.5305,3.5305 0 0 1 -1.77929,0.945 3.11283,3.11283 0 0 1 -1.83914,-0.902 10.4779,10.4779 0 0 0 -13.05855,0.68824 c -5.207,4.88241 -4.61771,14.42217 -10.72,18.12529 -1.68206,1.02074 -3.83241,1.5607 -4.81443,3.26566 a 12.06272,12.06272 0 0 1 -0.83023,1.57027 4.25319,4.25319 0 0 1 -1.4671,1.04539 28.50878,28.50878 0 0 0 -5.02994,2.8915 7.19368,7.19368 0 0 0 -2.895,4.85284 9.143,9.143 0 0 0 0.889,4.08126 38.29418,38.29418 0 0 0 37.21425,23.79652 5.89059,5.89059 0 0 0 3.89831,-1.21668 7.357,7.357 0 0 0 1.36643,-2.25052 c 2.86872,-6.01515 8.25682,-10.45557 11.67819,-16.17447 2.0391,-3.4084 3.348,-7.22054 5.4707,-10.57753 3.21782,-5.089 8.11145,-8.84842 12.90133,-12.49657 2.70108,-2.05725 5.70817,-4.21618 9.10153,-4.07208 3.02424,0.1288 5.224,0.29114 4.11527,-3.418 a 11.883,11.883 0 0 0 -5.20809,-6.36108 z"
     id="path95"
     inkscape:connector-curvature="0"
     style="opacity:0.05" />
  <path
     d="m 156.32072,800.01815 c -2.05725,1.91963 -4.88694,2.76088 -7.6326,3.35739 a 137.57107,137.57107 0 0 1 -18.99748,2.34792 c -2.0649,0.153 -4.13745,0.31359 -6.20235,0.47417 -6.05718,0.4589 -12.122,0.92541 -18.20206,0.94838 a 125.52955,125.52955 0 0 1 -22.38545,-1.935 1.89922,1.89922 0 0 1 -2.04193,-2.27141 108.44627,108.44627 0 0 1 2.75313,-22.46956 c 0.70374,-3.02859 6.13364,3.76276 6.37843,4.04573 1.50661,1.71312 2.64614,2.50088 4.93286,2.62323 6.24838,0.34416 13.24623,-3.45687 18.20972,-6.83724 a 23.30653,23.30653 0 0 1 3.37266,-2.08786 9.92943,9.92943 0 0 1 2.73036,-0.7801 16.48464,16.48464 0 0 1 9.29223,1.8814 c 3.73218,1.85078 7.00551,4.51224 10.69942,6.41661 a 30.07414,30.07414 0 0 0 9.59041,3.03619 c 3.38051,0.46652 7.41853,0.68834 9.15462,3.61745 a 0.02812,0.02812 0 0 1 0.008,0.023 c 1.4225,2.42439 0.38995,5.69772 -1.65963,7.6097 z"
     id="path97"
     inkscape:connector-curvature="0"
     style="fill:#2f2e41" />
  <path
     d="m 156.32072,801.13747 c -2.05725,1.91963 -4.88694,2.76088 -7.6326,3.3574 a 137.57258,137.57258 0 0 1 -18.99748,2.34791 c -2.0649,0.153 -4.13745,0.31359 -6.20235,0.47417 -6.05718,0.4589 -12.122,0.92541 -18.20206,0.94838 a 125.52862,125.52862 0 0 1 -22.38545,-1.935 2.46979,2.46979 0 0 1 -1.77437,-0.85656 9.92238,9.92238 0 0 1 -1.38688,-2.53417 c 0.13,-7.55613 2.17464,-15.10462 3.87245,-22.46956 0.70374,-3.02859 6.13364,3.76276 6.37843,4.04573 1.50661,1.71312 2.64614,2.50088 4.93286,2.62323 6.24838,0.34416 13.24623,-3.45687 18.20972,-6.83724 a 23.30653,23.30653 0 0 1 3.37266,-2.08786 9.92943,9.92943 0 0 1 2.73036,-0.7801 c -0.80307,4.497 -7.25021,9.927 -10.57712,11.57894 -6.73011,3.34214 -14.72979,1.6749 -22.24,2.065 a 3.1017,3.1017 0 0 0 -1.57551,0.38239 c -0.9024,0.59652 -0.956,1.87375 -0.92537,2.95209 0.06115,1.78963 0.29053,3.8928 1.84308,4.80286 a 5.31605,5.31605 0 0 0 2.49323,0.5201 352.604,352.604 0 0 0 55.455,-1.9426 30.49142,30.49142 0 0 0 9.03223,-2.0114 23.37792,23.37792 0 0 0 5.2388,-3.37271 c 2.36411,1.85749 0.38995,6.81702 -1.65963,8.729 z"
     id="path99"
     inkscape:connector-curvature="0"
     style="fill:#e8eaf2" />
  <path
     d="m 140.13589,343.60073 c -0.1159,3.59073 2.05272,10.55718 -3.89025,8.61217 -3.54265,-1.1595 -4.54417,-5.90045 -9.03873,-4.84378 -4.53598,1.07538 -5.5292,7.31244 -7.05214,11.40815 a 19.323724,21.830454 0 0 1 -14.00505,12.78271 8.4316218,9.5253967 0 0 1 -3.8571,-0.01 c -2.89702,-0.93511 -4.552457,-4.31082 -5.736094,-7.44336 a 51.691799,58.397409 0 0 1 -2.541056,-8.17272 30.549278,34.51222 0 0 1 -0.918858,-5.99396 v -0.01 a 23.600554,26.662088 0 0 1 -0.01658,-4.14244 c 0.538143,-8.16334 4.651884,-15.6067 9.916168,-21.23592 5.26428,-5.62922 11.66253,-9.69691 17.97803,-13.7085 a 26.249915,29.65513 0 0 1 6.63005,-3.3383 22.311926,25.206293 0 0 1 7.00257,-0.32726 24.442808,27.6136 0 0 1 8.90627,2.36581 12.544054,14.171305 0 0 1 3.13699,2.48734 9.430557,10.653917 0 0 1 2.71484,5.12425 c 1.14236,5.27395 -1.83751,10.02422 -4.25439,14.1947 -2.15223,3.70302 -4.81747,7.63041 -4.97468,12.24979 z"
     id="path101"
     inkscape:connector-curvature="0"
     style="fill:#2f2e41;stroke-width:1.15033996" />
  <path
     d="m 97.60492,352.9877 a 5.2478,5.2478 0 0 0 1.962,0.73042 6.32546,6.32546 0 0 0 5.23383,-0.78428 z"
     id="path105"
     inkscape:connector-curvature="0"
     style="opacity:0.1" />
  <path
     inkscape:connector-curvature="0"
     style="fill:#57b894;fill-opacity:1"
     d="m 725.9763,787.70135 c -0.2035,-0.3324 -5.0005,-8.3422 -6.6636,-24.9747 -1.5254,-15.2594 -0.5445,-40.9803 12.7947,-76.8589 25.2707,-67.9696 -5.8238,-122.81123 -6.1415,-123.35751 l 1.5341,-0.89 c 0.081,0.13851 8.1041,14.121 12.844,36.38591 a 158.7396,158.7396 0 0 1 -6.5744,88.4797 c -25.2275,67.8536 -6.4722,99.9749 -6.28,100.2918 z"
     id="path8" />
  <circle
     style="fill:#ff767f;fill-opacity:0.94117647"
     cx="716.09473"
     cy="546.99457"
     r="11.52464"
     id="circle10" />
  <circle
     style="fill:#57b894;fill-opacity:1"
     cx="752.44177"
     cy="589.54706"
     r="11.52464"
     id="circle12" />
  <circle
     style="fill:#ff767f;fill-opacity:0.94117647"
     cx="727.61938"
     cy="617.91541"
     r="11.52464"
     id="circle14" />
  <circle
     style="fill:#ff767f;fill-opacity:0.94117647"
     cx="757.76074"
     cy="641.85126"
     r="11.52464"
     id="circle16" />
  <circle
     style="fill:#57b894;fill-opacity:1"
     cx="718.75427"
     cy="679.08466"
     r="11.52464"
     id="circle18" />
  <path
     inkscape:connector-curvature="0"
     style="fill:#57b894;fill-opacity:1"
     d="m 732.9385,788.12555 c 0,0 -11.5246,-28.3683 23.0493,-49.6446 z"
     id="path20" />
  <path
     inkscape:connector-curvature="0"
     style="fill:#57b894;fill-opacity:1"
     d="m 718.765,787.61095 c 0,0 -5.245,-30.1673 -45.8402,-29.9088 z"
     id="path22" />
  <rect
     x="171.16666"
     y="150.93259"
     width="515"
     height="16"
     id="rect25-6"
     style="fill:#e6f1fc;fill-opacity:1" />
  <rect
     x="171.00003"
     y="98.26593"
     width="515"
     height="16"
     id="rect25-6-7"
     style="fill:#e6f1fc;fill-opacity:1" />
  <rect
     x="432"
     y="344.26593"
     width="255"
     height="16"
     id="rect31-5"
     style="opacity:1;fill:#e6f1fc;fill-opacity:1" />
</svg>
