<?xml version="1.0" encoding="UTF-8" standalone="no"?>
<svg
   xmlns:dc="http://purl.org/dc/elements/1.1/"
   xmlns:cc="http://creativecommons.org/ns#"
   xmlns:rdf="http://www.w3.org/1999/02/22-rdf-syntax-ns#"
   xmlns:svg="http://www.w3.org/2000/svg"
   xmlns="http://www.w3.org/2000/svg"
   xmlns:sodipodi="http://sodipodi.sourceforge.net/DTD/sodipodi-0.dtd"
   xmlns:inkscape="http://www.inkscape.org/namespaces/inkscape"
   id="b96dc930-0d18-4583-88bc-b5ddebd0569a"
   data-name="Layer 1"
   width="732.63641"
   height="788.12726"
   viewBox="0 0 732.63638 788.12727"
   version="1.1"
   sodipodi:docname="easy-customization.svg"
   inkscape:version="0.92.3 (2405546, 2018-03-11)">
  <metadata
     id="metadata69">
    <rdf:RDF>
      <cc:Work
         rdf:about="">
        <dc:format>image/svg+xml</dc:format>
        <dc:type
           rdf:resource="http://purl.org/dc/dcmitype/StillImage" />
        <dc:title>choice</dc:title>
      </cc:Work>
    </rdf:RDF>
  </metadata>
  <defs
     id="defs67" />
  <sodipodi:namedview
     pagecolor="#ffffff"
     bordercolor="#666666"
     borderopacity="1"
     objecttolerance="10"
     gridtolerance="10"
     guidetolerance="10"
     inkscape:pageopacity="0"
     inkscape:pageshadow="2"
     inkscape:window-width="1920"
     inkscape:window-height="1052"
     id="namedview65"
     showgrid="false"
     inkscape:zoom="0.55"
     inkscape:cx="-234.08694"
     inkscape:cy="407.22353"
     inkscape:window-x="0"
     inkscape:window-y="0"
     inkscape:window-maximized="1"
     inkscape:current-layer="b96dc930-0d18-4583-88bc-b5ddebd0569a"
     fit-margin-top="0.9"
     fit-margin-left="0"
     fit-margin-right="0"
     fit-margin-bottom="0" />
  <title
     id="title2">choice</title>
  <ellipse
     cx="163.5"
     cy="766.62726"
     rx="134"
     ry="21.5"
     id="ellipse4"
     style="fill:#e6f1fc;fill-opacity:1" />
  <rect
     x="61.5"
     y="137.12724"
     width="277.82574"
     height="165.45454"
     rx="15.745902"
     id="rect8"
     style="fill:#0074d9;stroke-width:0.68939394" />
  <path
     d="m 635.51706,8.3573586 a 22.982,22.982 0 0 0 -19.81,13.8510004 c -4.9535,11.97382 1.4245,26.038862 10.999,34.770282 9.5745,8.73142 21.8736,13.72225 33.0483,20.28234 15.0095,8.81129 28.49676,21.04282 36.00686,36.743859 7.5101,15.70104 8.3089,35.15009 -0.5189,50.14991 -8.1937,13.9224 -23.09246,22.2549 -37.30216,29.9397"
     stroke-miterlimit="10"
     id="path16"
     inkscape:connector-curvature="0"
     style="fill:none;stroke:#3f3d56;stroke-miterlimit:10" />
  <rect
     x="381.04541"
     y="138.52815"
     width="277"
     height="164.96278"
     rx="15.699102"
     id="rect10"
     style="fill:#ff767f;fill-opacity:0.94117647;stroke-width:0.68734491" />
  <ellipse
     cx="648.13635"
     cy="9.3999996"
     rx="17.5"
     ry="8.5"
     id="ellipse18"
     style="fill:#57b894;fill-opacity:1" />
  <ellipse
     cx="662.13635"
     cy="65.400009"
     rx="17.5"
     ry="8.5"
     id="ellipse20"
     style="fill:#57b894;fill-opacity:1" />
  <ellipse
     cx="630.13635"
     cy="74.400017"
     rx="17.5"
     ry="8.5"
     id="ellipse22"
     style="fill:#57b894;fill-opacity:1" />
  <ellipse
     cx="680.13635"
     cy="121.40002"
     rx="17.5"
     ry="8.5"
     id="ellipse24"
     style="fill:#57b894;fill-opacity:1" />
  <ellipse
     cx="715.13641"
     cy="121.40002"
     rx="17.5"
     ry="8.5"
     id="ellipse26"
     style="fill:#57b894;fill-opacity:1" />
  <path
     d="m 22.880651,567.08463 a 22.982,22.982 0 0 0 -19.8099406,13.851 c -4.9535,11.97382 1.4244905,26.03886 10.9990006,34.77028 9.57451,8.73142 21.8736,13.72221 33.04829,20.28234 15.00952,8.81129 28.4968,21.04282 36.00691,36.74386 7.51011,15.70108 8.30888,35.15008 -0.51891,50.14988 -8.1937,13.9224 -23.09255,22.2549 -37.30219,29.9397"
     stroke-miterlimit="10"
     id="path28"
     inkscape:connector-curvature="0"
     style="fill:none;stroke:#3f3d56;stroke-miterlimit:10" />
  <ellipse
     cx="35.5"
     cy="568.12726"
     rx="17.5"
     ry="8.5"
     id="ellipse30"
     style="fill:#57b894;fill-opacity:1" />
  <ellipse
     cx="49.5"
     cy="624.12726"
     rx="17.5"
     ry="8.5"
     id="ellipse32"
     style="fill:#57b894;fill-opacity:1" />
  <ellipse
     cx="17.5"
     cy="633.12726"
     rx="17.5"
     ry="8.5"
     id="ellipse34"
     style="fill:#57b894;fill-opacity:1" />
  <ellipse
     cx="67.5"
     cy="680.12726"
     rx="17.5"
     ry="8.5"
     id="ellipse36"
     style="fill:#57b894;fill-opacity:1" />
  <ellipse
     cx="102.49999"
     cy="680.12726"
     rx="17.5"
     ry="8.5"
     id="ellipse38"
     style="fill:#57b894;fill-opacity:1" />
  <path
     d="m 252,381.12725 c 0,0 2,15 -3,21 -5,6 -13,46 -13,46 v 24 c 0,0 31,-45 37,-63 6,-18 0,-32 0,-32 z"
     id="path40"
     inkscape:connector-curvature="0"
     style="fill:#ffc1c7" />
  <path
     d="m 249,307.12725 0.42258,0.4754 a 63.42,63.42 0 0 1 11.95624,19.787 c 6.56491,17.4327 20.67618,60.40473 15.62118,64.7376 -7,6 -27,10 -28,9 -1,-1 -21,-63 -21,-63 z"
     id="path42"
     inkscape:connector-curvature="0"
     style="fill:#3f3d56" />
  <path
     d="m 216.5,732.12729 c 0,0 24,5 25,0 a 40.0083,40.0083 0 0 1 3,-9 c 0,0 21.75284,0.9063 16.07358,19.977 a 7.97116,7.97116 0 0 1 -3.49114,4.5016 c -5.18052,3.1703 -17.38354,10.6471 -23.58244,14.5214 -4.65925,2.912 -11.35368,0.7361 -16.13229,-1.589 a 8.62558,8.62558 0 0 1 -4.65884,-9.4554 z"
     id="path44"
     inkscape:connector-curvature="0"
     style="fill:#3f3d56" />
  <path
     d="m 147.5,735.12729 c 0,0 -24,5 -25,0 a 40.0083,40.0083 0 0 0 -3,-9 c 0,0 -21.711004,0.9046 -16.08993,19.922 a 8.09559,8.09559 0 0 0 3.55522,4.5859 c 5.20737,3.1867 17.35477,10.6296 23.53471,14.4921 5.10231,3.1889 12.64528,0.2762 17.44015,-2.2522 a 6.95793,6.95793 0 0 0 3.60627,-7.5157 z"
     id="path46"
     inkscape:connector-curvature="0"
     style="fill:#3f3d56" />
  <path
     d="m 117.5,394.12725 c 0,0 -2,15 3,21 5,6 13,29 13,29 v 24 c 0,0 -31,-28 -37.000004,-46 -5.999995,-18 0,-32 0,-32 z"
     id="path48"
     inkscape:connector-curvature="0"
     style="fill:#ffc1c7" />
  <circle
     cx="187.5"
     cy="246.12726"
     r="25"
     id="circle50"
     style="fill:#ffc1c7" />
  <path
     d="m 207.5,256.12725 c 0,0 -7,32 0,36 7,4 -42,0 -42,0 0,0 11,-27 6,-36 -5,-9 36,0 36,0 z"
     id="path52"
     inkscape:connector-curvature="0"
     style="fill:#ffc1c7" />
  <path
     d="m 231.5,469.12725 c 0,0 9,13 6,53 -3,40 -6,82 -6,82 0,0 22,126.00004 15,129.00004 -7,3 -30,6 -33,3 -3,-3 -17,-120.00004 -17,-120.00004 l -13,-96 -20,110 c 0,0 -11,107.00004 -19,112.00004 -5.719,3.5743 -17.05936,1.0162 -23.06138,-0.7332 a 5.2211,5.2211 0 0 1 -3.77478,-5.2393 c 0.73309,-16.8268 4.02461,-83.2339 11.83616,-124.02754 9,-47 -9,-141 7,-143 16,-2 95,0 95,0 z"
     id="path54"
     inkscape:connector-curvature="0"
     style="fill:#2f2e41" />
  <path
     d="m 161.5,288.12725 c 0,0 4,-18 19,-16 15,2 25,1 28,11 3,10 35,18 35,18 0,0 8,1 7,14 -1,13 -21,61 -21,61 0,0 1,40 6,58 5,18 5,40 -6,45 -11,5 -80,23 -96,1 0,0 -9,-32 -3,-45 6,-13 -1,-64 -1,-64 l -19,-42 c 0,0 6,-20 23,-26 a 101.797,101.797 0 0 0 28,-15 z"
     id="path56"
     inkscape:connector-curvature="0"
     style="fill:#3f3d56" />
  <path
     d="m 118.5,320.12725 -8,9 c 0,0 -23.999999,59 -16.999999,65 6.999999,6 26.999999,10 27.999999,9 1,-1 18,-52 18,-52 z"
     id="path58"
     inkscape:connector-curvature="0"
     style="fill:#3f3d56" />
  <path
     d="m 216.5,231.12725 c 0,0 -4,3 -5,10 -1,7 -7.14074,-3.98856 -8.57037,10.50572 C 201.5,266.12725 177.5,276.12725 168.5,269.12725 c -9,-7 -24,-51 -3,-58 21,-7 42,-6 46,1 4,7 5,19 5,19 z"
     id="path60"
     inkscape:connector-curvature="0"
     style="fill:#2f2e41" />
  <path
     d="m 196.92969,251.63293 c 1.42956,-14.49427 7.57031,-3.50568 8.57031,-10.50568 1,-7 5,-10 5,-10 0,0 -1,-12 -5,-19 -1.91382,-3.34924 -7.72485,-5.32056 -15.56018,-5.70361 10.80969,-0.49524 19.18418,1.54561 21.56018,5.70361 4,7 5,19 5,19 0,0 -4,3 -5,10 -1,7 -7.14075,-3.98859 -8.57031,10.50568 -1.21216,12.288 -18.64307,21.34082 -29.4065,19.54834 10.25757,-1.40863 22.40186,-9.3642 23.4065,-19.54834 z"
     id="path62"
     inkscape:connector-curvature="0"
     style="opacity:0.1" />
</svg>
