<?xml version="1.0" encoding="UTF-8" standalone="no"?>
<svg
   xmlns:dc="http://purl.org/dc/elements/1.1/"
   xmlns:cc="http://creativecommons.org/ns#"
   xmlns:rdf="http://www.w3.org/1999/02/22-rdf-syntax-ns#"
   xmlns:svg="http://www.w3.org/2000/svg"
   xmlns="http://www.w3.org/2000/svg"
   xmlns:sodipodi="http://sodipodi.sourceforge.net/DTD/sodipodi-0.dtd"
   xmlns:inkscape="http://www.inkscape.org/namespaces/inkscape"
   id="a98b94c8-3ab5-4721-96c2-a749f3d38b5b"
   data-name="Layer 1"
   width="772"
   height="736"
   viewBox="0 0 771.99996 735.99997"
   version="1.1"
   sodipodi:docname="great-diversifier-blue.svg"
   inkscape:version="0.92.3 (2405546, 2018-03-11)">
  <metadata
     id="metadata87">
    <rdf:RDF>
      <cc:Work
         rdf:about="">
        <dc:format>image/svg+xml</dc:format>
        <dc:type
           rdf:resource="http://purl.org/dc/dcmitype/StillImage" />
        <dc:title>pie graph</dc:title>
      </cc:Work>
    </rdf:RDF>
  </metadata>
  <defs
     id="defs85" />
  <sodipodi:namedview
     pagecolor="#ffffff"
     bordercolor="#666666"
     borderopacity="1"
     objecttolerance="10"
     gridtolerance="10"
     guidetolerance="10"
     inkscape:pageopacity="0"
     inkscape:pageshadow="2"
     inkscape:window-width="1920"
     inkscape:window-height="1052"
     id="namedview83"
     showgrid="false"
     fit-margin-top="0"
     fit-margin-left="0"
     fit-margin-right="0"
     fit-margin-bottom="0"
     inkscape:zoom="0.68"
     inkscape:cx="398.26043"
     inkscape:cy="278.69841"
     inkscape:window-x="0"
     inkscape:window-y="0"
     inkscape:window-maximized="1"
     inkscape:current-layer="a98b94c8-3ab5-4721-96c2-a749f3d38b5b" />
  <title
     id="title2">pie graph</title>
  <ellipse
     cx="518.94788"
     cy="714.5"
     rx="134"
     ry="21.5"
     id="ellipse4"
     style="fill:#e6f1fc;fill-opacity:1" />
  <path
     d="m 484.93613,483.82142 -92.3647,-92.36465 -62.48794,114.732 a 130.69161,130.69161 0 0 0 154.85264,-22.36735 z"
     id="path72"
     inkscape:connector-curvature="0"
     style="fill:#0074d9;fill-opacity:1" />
  <path
     d="m 462.93613,435.82142 a 130.62333,130.62333 0 0 0 -92.36465,-222.988 v 130.62335 z"
     id="path16"
     inkscape:connector-curvature="0"
     style="fill:#e6f1fc;fill-opacity:1" />
  <path
     d="m 370.57143,212.8334 a 130.639,130.639 0 0 0 -62.48794,245.35537 l 62.48794,-114.732 z"
     id="path18"
     inkscape:connector-curvature="0"
     style="fill:#ff767f;fill-opacity:1" />
  <rect
     x="168"
     y="454.62558"
     width="25.012991"
     height="25.012991"
     id="rect22"
     style="fill:#e6f1fc;fill-opacity:1" />
  <rect
     x="204.12988"
     y="454.62558"
     width="25.012991"
     height="25.012991"
     id="rect24"
     style="fill:#0074d9;fill-opacity:1" />
  <polygon
     points="632.002,574.994 641.367,579.401 651.833,576.096 658.994,579.401 661.198,566.731 648.528,552.408 630.349,561.222 "
     id="polygon32"
     style="fill:#ffb9b9"
     transform="translate(-63.12987,109.49996)" />
  <path
     d="m 573.82969,681.18875 c 0,0 -8.54063,-9.9567 -8.67727,-4.9783 -0.13664,4.9783 -18.86617,22.0552 -18.86617,22.0552 0,0 -29.196,8.8139 -6.61042,14.3226 22.58558,5.5087 72.1638,-10.4665 73.81641,-13.7717 1.65261,-3.3052 -13.77172,-28.6452 -15.42433,-26.4417 -1.65261,2.2035 -9.91563,9.9157 -24.23822,8.8139 z"
     id="path34"
     inkscape:connector-curvature="0"
     style="fill:#2f2e41" />
  <path
     d="m 552.89668,517.58075 c 0,0 -3.30521,25.89083 0,29.74691 3.30521,3.85608 1.6526,11.56825 0,12.67 -1.6526,1.10175 2.20347,5.50869 4.95782,7.71217 2.75435,2.20348 6.61042,12.11911 6.61042,12.11911 0,0 14.87346,39.11171 14.87346,42.96781 0,3.856 6.61042,12.1191 6.05955,14.8734 -0.55087,2.7543 3.85608,11.5683 3.30522,13.2209 -0.55086,1.6526 7.16129,16.526 4.95781,18.7295 -2.20348,2.2035 -32.50125,9.9156 -30.84864,4.9578 1.65261,-4.9578 2.75434,-11.0174 1.6526,-11.0174 -1.10174,0 -6.05955,-6.0595 -4.95782,-8.263 1.10173,-2.2034 -33.05212,-60.04466 -33.05212,-60.04466 z"
     id="path36"
     inkscape:connector-curvature="0"
     style="fill:#2f2e41" />
  <path
     d="m 573.82969,681.18875 c 0,0 -8.54063,-9.9567 -8.67727,-4.9783 -0.13664,4.9783 -18.86617,22.0552 -18.86617,22.0552 0,0 -29.196,8.8139 -6.61042,14.3226 22.58558,5.5087 72.1638,-10.4665 73.81641,-13.7717 1.65261,-3.3052 -13.77172,-28.6452 -15.42433,-26.4417 -1.65261,2.2035 -9.91563,9.9157 -24.23822,8.8139 z"
     id="path38"
     inkscape:connector-curvature="0"
     style="opacity:0.1" />
  <path
     d="m 552.89668,517.58075 c 0,0 -3.30521,25.89083 0,29.74691 3.30521,3.85608 1.6526,11.56825 0,12.67 -1.6526,1.10175 2.20347,5.50869 4.95782,7.71217 2.75435,2.20348 6.61042,12.11911 6.61042,12.11911 0,0 14.87346,39.11171 14.87346,42.96781 0,3.856 6.61042,12.1191 6.05955,14.8734 -0.55087,2.7543 3.85608,11.5683 3.30522,13.2209 -0.55086,1.6526 7.16129,16.526 4.95781,18.7295 -2.20348,2.2035 -32.50125,9.9156 -30.84864,4.9578 1.65261,-4.9578 2.75434,-11.0174 1.6526,-11.0174 -1.10174,0 -6.05955,-6.0595 -4.95782,-8.263 1.10173,-2.2034 -33.05212,-60.04466 -33.05212,-60.04466 z"
     id="path40"
     inkscape:connector-curvature="0"
     style="opacity:0.1" />
  <polygon
     points="556.533,591.292 574.161,590.19 584.076,581.376 584.076,562.647 559.838,554.384 553.778,569.808 "
     id="polygon42"
     style="fill:#ffb9b9"
     transform="translate(-63.12987,109.49996)" />
  <path
     d="m 500.01328,682.61305 c 0,0 -6.05955,-19.8313 -9.36477,-14.3226 a 87.16079,87.16079 0 0 0 -5.50868,11.0174 c 0,0 -26.99257,17.6278 -34.15386,17.6278 -7.16129,0 -13.77172,8.8139 -4.407,12.1191 9.36472,3.3052 80.9777,7.7122 82.07943,0 1.10173,-7.7121 -1.10173,-32.5012 -4.40694,-29.7469 -3.30521,2.7544 -20.3821,8.8139 -24.23818,3.3052 z"
     id="path44"
     inkscape:connector-curvature="0"
     style="fill:#2f2e41" />
  <path
     d="m 486.24156,438.57824 c 0,0 -11.56824,19.83128 -12.67,22.03475 -1.10176,2.20347 -7.16129,16.52606 4.40695,22.03475 11.56824,5.50869 21.48388,-40.21341 21.48388,-40.21341 z"
     id="path46"
     inkscape:connector-curvature="0"
     style="fill:#ffb9b9" />
  <path
     d="m 498.36068,406.62786 c 0,0 -17.6278,34.15386 -14.32259,35.2556 3.30521,1.10174 16.52606,7.71216 16.52606,7.71216 l 6.05956,-34.70473 z"
     id="path48"
     inkscape:connector-curvature="0"
     style="fill:#575a88" />
  <path
     d="m 498.36068,406.62786 c 0,0 -17.6278,34.15386 -14.32259,35.2556 3.30521,1.10174 16.52606,7.71216 16.52606,7.71216 l 6.05956,-34.70473 z"
     id="path50"
     inkscape:connector-curvature="0"
     style="opacity:0.1" />
  <path
     d="m 499.46241,435.27306 c 0,0 -3.85608,28.64518 -2.20347,34.70473 1.65261,6.05955 -1.10174,96.9529 1.10174,101.91071 2.20348,4.95781 3.85608,36.90825 3.85608,40.76425 0,3.8561 -4.407,35.2556 -5.50869,38.01 -1.10169,2.7543 -4.407,12.1191 -2.75434,16.526 1.65266,4.407 24.23822,15.4243 27.5434,11.5683 3.30518,-3.856 0.55087,-15.9752 3.30521,-16.5261 2.75434,-0.5508 6.05956,-26.4416 6.05956,-26.4416 l 18.17867,-101.3599 c 0,0 34.15386,-84.83378 26.4417,-93.09681 -7.71216,-8.26303 -76.01986,-6.05958 -76.01986,-6.05958 z"
     id="path52"
     inkscape:connector-curvature="0"
     style="fill:#2f2e41" />
  <circle
     cx="519.84454"
     cy="212.72209"
     r="26.992571"
     id="circle54"
     style="fill:#ffb9b9" />
  <path
     d="m 509.92892,234.75682 c 0,0 8.8139,23.13648 7.71216,28.0943 -1.10174,4.95782 25.89083,-8.8139 25.89083,-8.8139 0,0 -1.65261,-26.99257 0,-34.15386 1.65261,-7.16129 -33.60299,14.87346 -33.60299,14.87346 z"
     id="path56"
     inkscape:connector-curvature="0"
     style="fill:#ffb9b9" />
  <path
     d="m 583.94356,385.48 c -0.121,4.6218 -0.19823,7.37614 -0.19823,7.37614 0,0 1.6526,25.34 -1.10174,33.603 -2.75434,8.263 -2.75434,14.32259 -4.407,19.83128 -0.4847,1.603 -7.07872,2.46236 -16.33872,2.84246 -8.49449,0.34705 -19.23091,0.29749 -29.53764,0.0606 -17.06591,-0.39661 -32.97506,-1.311 -35.65221,-1.80132 -6.05956,-1.10173 1.10174,-10.4665 -1.10174,-15.42432 -2.20348,-4.95782 3.85613,-68.30777 3.85613,-68.30777 0,0 -0.55087,-35.80647 2.20348,-49.57819 2.75435,-13.77172 13.22085,-35.80646 15.42432,-38.56081 2.20347,-2.75435 0.55087,-4.40695 -4.407,-7.71216 -4.95787,-3.30521 0,-15.97519 0,-15.97519 9.36477,-7.71216 33.05213,-8.8139 33.05213,-8.8139 0,0 36.35733,37.45907 38.56081,45.17123 1.33305,4.66033 0.85387,41.888 0.26992,70.63237 -0.22576,10.81365 -0.46273,20.43178 -0.62251,26.65659 z"
     id="path58"
     inkscape:connector-curvature="0"
     style="fill:#575a88" />
  <path
     d="m 537.47235,454.00257 c 0,0 -20.933,42.96776 -4.40695,45.7221 16.52605,2.75434 24.7891,-39.11168 24.7891,-39.11168 z"
     id="path60"
     inkscape:connector-curvature="0"
     style="fill:#ffb9b9" />
  <path
     d="m 494.60555,199.04027 c -0.95456,-4.62956 2.58357,-8.95718 6.30994,-11.86548 a 46.1123,46.1123 0 0 1 28.36939,-9.67417 c 7.22409,0.0392 14.67976,1.95023 20.13991,6.68055 6.36868,5.51741 9.2738,14.36539 8.73908,22.77467 -0.53472,8.40928 -4.19195,16.38512 -9.125,23.21643 -2.36764,3.27871 -6.17014,6.67272 -9.95349,5.24377 a 9.251,9.251 0 0 1 -3.68162,-3.10971 57.10307,57.10307 0 0 1 -6.31115,-9.69932 c -1.354,-2.63119 -2.52691,-5.4045 -4.44595,-7.657 -1.91904,-2.2525 -4.80319,-3.94663 -7.73456,-3.54215 -2.42142,0.33412 -4.79667,2.0387 -7.10613,1.23786 -2.56934,-0.891 -3.19043,-4.17648 -3.39476,-6.88822 -0.224,-2.97233 -0.0653,-6.41538 -0.89068,-9.22555 -0.90274,0.48199 -10.47135,4.72651 -10.91498,2.50832 z"
     id="path62"
     inkscape:connector-curvature="0"
     style="fill:#2f2e41" />
  <path
     d="m 583.94356,385.48 c -6.1697,22.2496 -20.32148,59.74723 -21.13124,61.36127 -0.20389,0.41316 -0.5233,1.22292 -0.9144,2.2916 -8.49449,0.34705 -19.23091,0.29749 -29.53764,0.0606 1.5976,-4.17556 3.45947,-8.20792 3.45947,-9.51348 0,-2.75434 13.22085,-73.81641 13.22085,-73.81641 0,0 -10.46647,-31.39951 -19.83128,-57.84121 -9.36481,-26.4417 27.81887,-21.20845 27.81887,-21.20845 19.83128,-4.95785 23.41194,3.58065 23.41194,3.58065 0,0 1.74622,46.43822 4.126,68.42889 0.61152,5.63541 1.26151,9.66226 1.93355,10.8962 0.88145,1.61405 -0.30855,7.68463 -2.55612,15.76035 z"
     id="path64"
     inkscape:connector-curvature="0"
     style="opacity:0.1" />
  <path
     d="m 549.0406,268.91068 c 0,0 -25.34,10.4665 -15.9752,36.9082 9.3648,26.4417 19.83128,57.84118 19.83128,57.84118 0,0 -13.22085,71.0621 -13.22085,73.81645 0,2.75435 -8.263,17.6278 -4.95782,20.38214 3.30518,2.75434 25.34,8.263 25.89083,5.50869 a 186.304,186.304 0 0 1 6.05956,-18.72954 c 1.10173,-2.20347 26.99256,-71.06207 23.68735,-77.12162 -3.30521,-6.05955 -6.05955,-79.3251 -6.05955,-79.3251 0,0 -15.42433,-24.23822 -35.2556,-19.2804 z"
     id="path66"
     inkscape:connector-curvature="0"
     style="fill:#575a88" />
  <path
     d="m 492.93613,476.82142 -97.3647,-91.36465 -57.48794,118.732 a 130.03537,130.03537 0 0 0 62.48794,15.89138 c 36.0707,0 68.72651,-19.62059 92.3647,-43.25873 z"
     id="path68"
     inkscape:connector-curvature="0"
     style="fill:#575a89" />
  <path
     d="m 492.93613,476.82142 -97.3647,-91.36465 -57.48794,118.732 a 130.03537,130.03537 0 0 0 62.48794,15.89138 c 36.0707,0 68.72651,-19.62059 92.3647,-43.25873 z"
     id="path70"
     inkscape:connector-curvature="0"
     style="opacity:1;fill:#0074d9;fill-opacity:1" />
  <line
     x1="674.95227"
     y1="714.46021"
     x2="674.95227"
     y2="598.36658"
     stroke-miterlimit="10"
     id="line76"
     style="fill:#3f3d56;stroke:#3f3d56;stroke-width:2;stroke-miterlimit:10" />
  <circle
     cx="674.95227"
     cy="598.36658"
     r="16.417271"
     id="circle78"
     style="fill:#57b894;fill-opacity:1" />
  <path
     d="m 674.95228,669.91745 c 0,0 -2.34533,-50.4429 -50.42446,-44.5796"
     id="path80"
     inkscape:connector-curvature="0"
     style="fill:#57b894;fill-opacity:1" />
  <path
     inkscape:connector-curvature="0"
     style="fill:#57b894"
     d="m 82.108424,586.36186 a 15.5288,15.5288 0 1 0 2.068,-29.78188 l 0.3887,7.99268 -3.7815,-6.8498 a 15.47025,15.47025 0 0 0 -7.9714,8.74657 15.227,15.227 0 0 0 -0.8932,4.2006 15.52584,15.52584 0 0 0 10.1894,15.69183 z"
     id="path10" />
  <path
     inkscape:connector-curvature="0"
     style="fill:none;stroke:#3f3d56;stroke-miterlimit:10"
     d="m 100.81932,679.06334 c -1.334896,-6.79742 4.4494,-12.82355 10.1629,-16.74051 5.7135,-3.91696 12.3894,-7.76554 14.3389,-14.41283 2.8018,-9.55332 -5.5437,-18.30237 -12.0392,-25.84718 a 93.48988,93.48988 0 0 1 -12.3288,-18.32295 25.22231,25.22231 0 0 1 -2.948796,-8.33146 c -0.5122,-4.23462 0.8483,-8.44847 2.218896,-12.48774 q 6.8489,-20.184 14.6453,-40.0298"
     stroke-miterlimit="10"
     id="path12" />
  <path
     inkscape:connector-curvature="0"
     style="fill:#57b894"
     d="m 98.921324,540.13067 a 15.51068,15.51068 0 0 1 11.176996,-9.84713 l 1.2786,7.59841 2.3704,-7.98034 a 15.52689,15.52689 0 1 1 -14.825996,10.22906 z"
     id="path16-3" />
  <path
     inkscape:connector-curvature="0"
     style="fill:#57b894"
     d="m 110.55602,622.21681 a 15.52693,15.52693 0 0 0 13.743,-27.62365 l -1.8215,6.13265 -1.2916,-7.688 a 0.2711,0.2711 0 0 0 -0.039,-0.015 15.527768,15.527768 0 1 0 -10.5904,29.194 z"
     id="path20" />
  <path
     inkscape:connector-curvature="0"
     style="fill:#57b894"
     d="m 94.389724,648.00496 a 15.52044,15.52044 0 1 0 2.9924,-12.15992 l 6.918596,10.41337 -9.453396,-5.52709 a 15.38252,15.38252 0 0 0 -0.4576,7.27364 z"
     id="path24" />
  <ellipse
     style="opacity:0.1;fill:#0074d9"
     cx="95.190872"
     cy="712.76898"
     rx="34.310001"
     ry="5.8000002"
     id="ellipse113" />
  <path
     inkscape:connector-curvature="0"
     style="fill:#a8a8a8"
     d="m 72.180824,685.819 c 0,0 19.57,-0.6 25.47,-4.8 5.899996,-4.2 30.099996,-9.21 31.559996,-2.48 1.46,6.73 29.42,33.5 7.32,33.68 -22.1,0.18 -51.339996,-3.44 -57.229996,-7 -5.89,-3.56 -7.12,-19.4 -7.12,-19.4 z"
     id="path115" />
  <path
     inkscape:connector-curvature="0"
     style="opacity:0.2"
     d="m 136.90082,709.879 c -22.1,0.18 -51.339996,-3.44 -57.229996,-7 -4.48,-2.73 -6.27,-12.53 -6.87,-17 h -0.65 c 0,0 1.24,15.79 7.12,19.37 5.88,3.58 35.139996,7.21 57.229996,7 6.38,0 8.58,-2.32 8.46,-5.68 -0.89,2 -3.32,3.27 -8.06,3.31 z"
     id="path117" />
  <rect
     x="131.72879"
     y="455.84647"
     width="25.012991"
     height="25.012991"
     id="rect22-6"
     style="fill:#ff767f;fill-opacity:1" />
</svg>
